# xmcd
#
# Track frame offsets: 
#        150
#        28086
#        58569
#        95189
#        116675
#        141362
#        173849
#        193247
#        208083
#        233574
#
# Disc length: 3578 seconds
#
# Revision: 0
# Processed by: cddbd v1.4PL0 Copyright (c) Steve Scherf et al.
# Submitted via: ExactAudioCopy v0.90b3
#
DISCID=940df80a
DTITLE=Dioptrio - Do What You Like
DYEAR=2000
DGENRE=Blues
TTITLE0=Do What You Like
TTITLE1=Red House
TTITLE2=Spill the Wine
TTITLE3=Big Boss Man
TTITLE4=After Midnight
TTITLE5=Who Knows
TTITLE6=Barabajagal
TTITLE7=All Around the World
TTITLE8=Norvegian Wood
TTITLE9=Hoochie-Coochie Man
EXTD=
EXTT0=
EXTT1=
EXTT2=
EXTT3=
EXTT4=
EXTT5=
EXTT6=
EXTT7=
EXTT8=
EXTT9=
PLAYORDER=
